<mxfile host="app.diagrams.net" modified="2023-11-23T16:43:09.278Z" agent="Mozilla/5.0 (Windows NT 10.0; Win64; x64) AppleWebKit/537.36 (KHTML, like Gecko) Chrome/118.0.0.0 Safari/537.36 OPR/104.0.0.0" etag="n6DVMLO2npgRfHCox631" version="21.6.6" type="device">
  <diagram name="Page-1" id="74e2e168-ea6b-b213-b513-2b3c1d86103e">
    <mxGraphModel dx="1393" dy="806" grid="1" gridSize="10" guides="1" tooltips="1" connect="1" arrows="1" fold="1" page="1" pageScale="1" pageWidth="1100" pageHeight="850" background="none" math="0" shadow="0">
      <root>
        <mxCell id="0" />
        <mxCell id="1" parent="0" />
        <mxCell id="77e6c97f196da883-1" value="ECA-E" style="swimlane;html=1;childLayout=stackLayout;startSize=20;rounded=0;shadow=0;labelBackgroundColor=none;strokeWidth=1;fontFamily=Verdana;fontSize=8;align=center;" parent="1" vertex="1">
          <mxGeometry x="70" y="40" width="840" height="960" as="geometry" />
        </mxCell>
        <mxCell id="77e6c97f196da883-2" value="System" style="swimlane;html=1;startSize=20;" parent="77e6c97f196da883-1" vertex="1">
          <mxGeometry y="20" width="300" height="940" as="geometry" />
        </mxCell>
        <mxCell id="yyzXew4Nl1RrEf-P3R2R-1" style="edgeStyle=orthogonalEdgeStyle;rounded=0;orthogonalLoop=1;jettySize=auto;html=1;entryX=0.5;entryY=0;entryDx=0;entryDy=0;" edge="1" parent="77e6c97f196da883-2" source="77e6c97f196da883-8" target="yyzXew4Nl1RrEf-P3R2R-2">
          <mxGeometry relative="1" as="geometry">
            <mxPoint x="70" y="161" as="targetPoint" />
          </mxGeometry>
        </mxCell>
        <mxCell id="77e6c97f196da883-8" value="Copy affected objects" style="rounded=1;whiteSpace=wrap;html=1;shadow=0;labelBackgroundColor=none;strokeWidth=1;fontFamily=Verdana;fontSize=8;align=center;" parent="77e6c97f196da883-2" vertex="1">
          <mxGeometry x="20" y="73" width="100" height="60" as="geometry" />
        </mxCell>
        <mxCell id="yyzXew4Nl1RrEf-P3R2R-5" value="" style="edgeStyle=orthogonalEdgeStyle;rounded=0;orthogonalLoop=1;jettySize=auto;html=1;" edge="1" parent="77e6c97f196da883-2" source="yyzXew4Nl1RrEf-P3R2R-2" target="yyzXew4Nl1RrEf-P3R2R-4">
          <mxGeometry relative="1" as="geometry" />
        </mxCell>
        <mxCell id="yyzXew4Nl1RrEf-P3R2R-2" value="Get product line attribute from ECR" style="rounded=1;whiteSpace=wrap;html=1;shadow=0;labelBackgroundColor=none;strokeWidth=1;fontFamily=Verdana;fontSize=8;align=center;" vertex="1" parent="77e6c97f196da883-2">
          <mxGeometry x="20" y="160" width="100" height="60" as="geometry" />
        </mxCell>
        <mxCell id="yyzXew4Nl1RrEf-P3R2R-39" style="edgeStyle=orthogonalEdgeStyle;rounded=0;orthogonalLoop=1;jettySize=auto;html=1;exitX=0.5;exitY=1;exitDx=0;exitDy=0;entryX=0.5;entryY=0;entryDx=0;entryDy=0;" edge="1" parent="77e6c97f196da883-2" source="yyzXew4Nl1RrEf-P3R2R-4" target="yyzXew4Nl1RrEf-P3R2R-38">
          <mxGeometry relative="1" as="geometry" />
        </mxCell>
        <mxCell id="yyzXew4Nl1RrEf-P3R2R-4" value="Load users from product line team template" style="rounded=1;whiteSpace=wrap;html=1;shadow=0;labelBackgroundColor=none;strokeWidth=1;fontFamily=Verdana;fontSize=8;align=center;" vertex="1" parent="77e6c97f196da883-2">
          <mxGeometry x="20" y="256" width="100" height="60" as="geometry" />
        </mxCell>
        <mxCell id="yyzXew4Nl1RrEf-P3R2R-6" value="Remove users that are not needed" style="rounded=1;whiteSpace=wrap;html=1;shadow=0;labelBackgroundColor=none;strokeWidth=1;fontFamily=Verdana;fontSize=8;align=center;" vertex="1" parent="77e6c97f196da883-2">
          <mxGeometry x="20" y="450" width="100" height="60" as="geometry" />
        </mxCell>
        <mxCell id="yyzXew4Nl1RrEf-P3R2R-13" value="Lock affected objects" style="rounded=1;whiteSpace=wrap;html=1;shadow=0;labelBackgroundColor=none;strokeWidth=1;fontFamily=Verdana;fontSize=8;align=center;" vertex="1" parent="77e6c97f196da883-2">
          <mxGeometry x="100" y="570" width="100" height="60" as="geometry" />
        </mxCell>
        <mxCell id="yyzXew4Nl1RrEf-P3R2R-21" value="Set affected objects to be editable" style="whiteSpace=wrap;html=1;fontSize=8;fontFamily=Verdana;rounded=1;shadow=0;labelBackgroundColor=none;strokeWidth=1;" vertex="1" parent="77e6c97f196da883-2">
          <mxGeometry x="160" y="670" width="120" height="60" as="geometry" />
        </mxCell>
        <mxCell id="yyzXew4Nl1RrEf-P3R2R-37" style="edgeStyle=orthogonalEdgeStyle;rounded=0;orthogonalLoop=1;jettySize=auto;html=1;" edge="1" parent="77e6c97f196da883-2" source="yyzXew4Nl1RrEf-P3R2R-36" target="77e6c97f196da883-8">
          <mxGeometry relative="1" as="geometry" />
        </mxCell>
        <mxCell id="yyzXew4Nl1RrEf-P3R2R-36" value="" style="ellipse;fillColor=strokeColor;html=1;" vertex="1" parent="77e6c97f196da883-2">
          <mxGeometry x="55" y="24" width="30" height="30" as="geometry" />
        </mxCell>
        <mxCell id="yyzXew4Nl1RrEf-P3R2R-40" style="edgeStyle=orthogonalEdgeStyle;rounded=0;orthogonalLoop=1;jettySize=auto;html=1;exitX=0.5;exitY=1;exitDx=0;exitDy=0;entryX=0.5;entryY=0;entryDx=0;entryDy=0;" edge="1" parent="77e6c97f196da883-2" source="yyzXew4Nl1RrEf-P3R2R-38" target="yyzXew4Nl1RrEf-P3R2R-6">
          <mxGeometry relative="1" as="geometry" />
        </mxCell>
        <mxCell id="yyzXew4Nl1RrEf-P3R2R-38" value="Get all radio button attributes from ECR" style="rounded=1;whiteSpace=wrap;html=1;shadow=0;labelBackgroundColor=none;strokeWidth=1;fontFamily=Verdana;fontSize=8;align=center;" vertex="1" parent="77e6c97f196da883-2">
          <mxGeometry x="20" y="340" width="100" height="60" as="geometry" />
        </mxCell>
        <mxCell id="77e6c97f196da883-3" value="Change Admin" style="swimlane;html=1;startSize=20;" parent="77e6c97f196da883-1" vertex="1">
          <mxGeometry x="300" y="20" width="280" height="940" as="geometry" />
        </mxCell>
        <mxCell id="yyzXew4Nl1RrEf-P3R2R-9" value="Select users" style="rounded=1;whiteSpace=wrap;html=1;shadow=0;labelBackgroundColor=none;strokeWidth=1;fontFamily=Verdana;fontSize=8;align=center;" vertex="1" parent="77e6c97f196da883-3">
          <mxGeometry x="30" y="450" width="100" height="60" as="geometry" />
        </mxCell>
        <mxCell id="yyzXew4Nl1RrEf-P3R2R-18" value="" style="edgeStyle=orthogonalEdgeStyle;rounded=0;orthogonalLoop=1;jettySize=auto;html=1;" edge="1" parent="77e6c97f196da883-3" source="yyzXew4Nl1RrEf-P3R2R-15" target="yyzXew4Nl1RrEf-P3R2R-17">
          <mxGeometry relative="1" as="geometry" />
        </mxCell>
        <mxCell id="yyzXew4Nl1RrEf-P3R2R-15" value="Review Implementation Task" style="rounded=1;whiteSpace=wrap;html=1;shadow=0;labelBackgroundColor=none;strokeWidth=1;fontFamily=Verdana;fontSize=8;align=center;" vertex="1" parent="77e6c97f196da883-3">
          <mxGeometry x="80" y="570" width="100" height="60" as="geometry" />
        </mxCell>
        <mxCell id="yyzXew4Nl1RrEf-P3R2R-34" value="" style="edgeStyle=orthogonalEdgeStyle;rounded=0;orthogonalLoop=1;jettySize=auto;html=1;" edge="1" parent="77e6c97f196da883-3" source="yyzXew4Nl1RrEf-P3R2R-17" target="yyzXew4Nl1RrEf-P3R2R-32">
          <mxGeometry relative="1" as="geometry" />
        </mxCell>
        <mxCell id="yyzXew4Nl1RrEf-P3R2R-35" value="[No Rework Required]" style="edgeLabel;html=1;align=center;verticalAlign=middle;resizable=0;points=[];" vertex="1" connectable="0" parent="yyzXew4Nl1RrEf-P3R2R-34">
          <mxGeometry x="-0.525" y="-2" relative="1" as="geometry">
            <mxPoint x="72" y="11" as="offset" />
          </mxGeometry>
        </mxCell>
        <mxCell id="yyzXew4Nl1RrEf-P3R2R-17" value="" style="rhombus;whiteSpace=wrap;html=1;fontSize=8;fontFamily=Verdana;rounded=1;shadow=0;labelBackgroundColor=none;strokeWidth=1;" vertex="1" parent="77e6c97f196da883-3">
          <mxGeometry x="90" y="660" width="80" height="80" as="geometry" />
        </mxCell>
        <mxCell id="yyzXew4Nl1RrEf-P3R2R-32" value="" style="ellipse;html=1;shape=endState;fillColor=strokeColor;" vertex="1" parent="77e6c97f196da883-3">
          <mxGeometry x="115" y="820" width="30" height="30" as="geometry" />
        </mxCell>
        <mxCell id="yyzXew4Nl1RrEf-P3R2R-10" value="" style="edgeStyle=orthogonalEdgeStyle;rounded=0;orthogonalLoop=1;jettySize=auto;html=1;" edge="1" parent="77e6c97f196da883-1" source="yyzXew4Nl1RrEf-P3R2R-6" target="yyzXew4Nl1RrEf-P3R2R-9">
          <mxGeometry relative="1" as="geometry" />
        </mxCell>
        <mxCell id="yyzXew4Nl1RrEf-P3R2R-14" value="" style="edgeStyle=orthogonalEdgeStyle;rounded=0;orthogonalLoop=1;jettySize=auto;html=1;" edge="1" parent="77e6c97f196da883-1" source="yyzXew4Nl1RrEf-P3R2R-11" target="yyzXew4Nl1RrEf-P3R2R-13">
          <mxGeometry relative="1" as="geometry">
            <Array as="points">
              <mxPoint x="680" y="560" />
              <mxPoint x="150" y="560" />
            </Array>
          </mxGeometry>
        </mxCell>
        <mxCell id="yyzXew4Nl1RrEf-P3R2R-16" value="" style="edgeStyle=orthogonalEdgeStyle;rounded=0;orthogonalLoop=1;jettySize=auto;html=1;" edge="1" parent="77e6c97f196da883-1" source="yyzXew4Nl1RrEf-P3R2R-13" target="yyzXew4Nl1RrEf-P3R2R-15">
          <mxGeometry relative="1" as="geometry" />
        </mxCell>
        <mxCell id="yyzXew4Nl1RrEf-P3R2R-22" value="" style="edgeStyle=orthogonalEdgeStyle;rounded=0;orthogonalLoop=1;jettySize=auto;html=1;" edge="1" parent="77e6c97f196da883-1" source="yyzXew4Nl1RrEf-P3R2R-17" target="yyzXew4Nl1RrEf-P3R2R-21">
          <mxGeometry relative="1" as="geometry" />
        </mxCell>
        <mxCell id="yyzXew4Nl1RrEf-P3R2R-27" value="[Rework Required]" style="edgeLabel;html=1;align=center;verticalAlign=middle;resizable=0;points=[];" vertex="1" connectable="0" parent="yyzXew4Nl1RrEf-P3R2R-22">
          <mxGeometry x="-0.0333" y="1" relative="1" as="geometry">
            <mxPoint x="13" y="-11" as="offset" />
          </mxGeometry>
        </mxCell>
        <mxCell id="77e6c97f196da883-4" value="Engineer" style="swimlane;html=1;startSize=20;" parent="77e6c97f196da883-1" vertex="1">
          <mxGeometry x="580" y="20" width="260" height="940" as="geometry" />
        </mxCell>
        <mxCell id="yyzXew4Nl1RrEf-P3R2R-11" value="Complete implementation task" style="rounded=1;whiteSpace=wrap;html=1;shadow=0;labelBackgroundColor=none;strokeWidth=1;fontFamily=Verdana;fontSize=8;align=center;" vertex="1" parent="77e6c97f196da883-4">
          <mxGeometry x="90" y="490" width="100" height="60" as="geometry" />
        </mxCell>
        <mxCell id="yyzXew4Nl1RrEf-P3R2R-25" style="edgeStyle=orthogonalEdgeStyle;rounded=0;orthogonalLoop=1;jettySize=auto;html=1;exitX=0.5;exitY=1;exitDx=0;exitDy=0;entryX=0.5;entryY=0;entryDx=0;entryDy=0;" edge="1" parent="77e6c97f196da883-4" source="yyzXew4Nl1RrEf-P3R2R-23" target="yyzXew4Nl1RrEf-P3R2R-11">
          <mxGeometry relative="1" as="geometry" />
        </mxCell>
        <mxCell id="yyzXew4Nl1RrEf-P3R2R-23" value="" style="rhombus;whiteSpace=wrap;html=1;fontSize=8;fontFamily=Verdana;rounded=1;shadow=0;labelBackgroundColor=none;strokeWidth=1;" vertex="1" parent="77e6c97f196da883-4">
          <mxGeometry x="100" y="340" width="80" height="80" as="geometry" />
        </mxCell>
        <mxCell id="yyzXew4Nl1RrEf-P3R2R-24" value="" style="edgeStyle=orthogonalEdgeStyle;rounded=0;orthogonalLoop=1;jettySize=auto;html=1;" edge="1" parent="77e6c97f196da883-1" source="yyzXew4Nl1RrEf-P3R2R-9" target="yyzXew4Nl1RrEf-P3R2R-23">
          <mxGeometry relative="1" as="geometry">
            <Array as="points">
              <mxPoint x="460" y="400" />
            </Array>
          </mxGeometry>
        </mxCell>
        <mxCell id="yyzXew4Nl1RrEf-P3R2R-26" style="edgeStyle=orthogonalEdgeStyle;rounded=0;orthogonalLoop=1;jettySize=auto;html=1;exitX=0.5;exitY=0;exitDx=0;exitDy=0;entryX=0.5;entryY=0;entryDx=0;entryDy=0;" edge="1" parent="77e6c97f196da883-1" source="yyzXew4Nl1RrEf-P3R2R-21" target="yyzXew4Nl1RrEf-P3R2R-23">
          <mxGeometry relative="1" as="geometry">
            <mxPoint x="680" y="180" as="targetPoint" />
            <Array as="points">
              <mxPoint x="220" y="170" />
              <mxPoint x="720" y="170" />
            </Array>
          </mxGeometry>
        </mxCell>
      </root>
    </mxGraphModel>
  </diagram>
</mxfile>
